<svg width="60" height="60" viewBox="0 0 60 60" fill="none" xmlns="http://www.w3.org/2000/svg">
<g clip-path="url(#clip0_987_11624)">
<path d="M15.7197 45.2871H12.2651C11.7797 45.2871 11.3862 45.6806 11.3862 46.166C11.3862 46.6514 11.7797 47.0449 12.2651 47.0449H15.7197C16.2051 47.0449 16.5986 46.6514 16.5986 46.166C16.5986 45.6806 16.2051 45.2871 15.7197 45.2871Z" fill="#849A9C"/>
<path d="M36.0377 35.4021L31.0022 33.4599L28.4327 30.8904C28.2656 30.7233 28.0469 30.6374 27.8265 30.6336V28.5338C29.0426 27.2418 29.9066 25.6016 30.2485 23.7525C30.2492 23.7517 30.2501 23.7508 30.2509 23.7499C30.4747 23.7634 30.7008 23.7469 30.9239 23.7012C32.1316 23.4539 33.0083 22.3327 33.0083 21.0351V20.3621C33.0083 19.6014 32.6958 18.9042 32.1885 18.4105C33.0125 13.9725 32.3471 10.3578 30.2558 7.94275C28.2396 5.61447 24.9885 4.50189 20.8547 4.72537C17.0044 4.9335 14.5315 6.71662 13.7727 7.34533C12.7049 7.48408 9.65952 8.25365 9.65952 12.512C9.65952 14.8699 10.0426 16.831 10.3116 17.918C9.40534 18.3416 8.79585 19.2874 8.79585 20.3721V21.0349C8.79585 22.3326 9.67241 23.4539 10.8803 23.7011C11.1035 23.7468 11.3298 23.7633 11.5534 23.7498C11.5542 23.7506 11.555 23.7516 11.5557 23.7524C11.8977 25.6015 12.7617 27.2415 13.9778 28.5337V30.6335C13.7573 30.6374 13.5387 30.7232 13.3716 30.8903L10.8021 33.4597L5.76655 35.402C3.34499 36.336 1.78792 38.706 1.89187 41.2992L2.60694 59.1561C2.62593 59.6292 3.01534 59.9999 3.48456 59.9999C3.49651 59.9999 3.50847 59.9997 3.52042 59.9992C4.00546 59.9797 4.3828 59.5709 4.36347 59.0858L3.64827 41.2289C3.62929 40.7543 3.68917 40.2904 3.81726 39.8515L6.67218 42.7064C7.48487 43.5191 7.93241 44.5997 7.93241 45.749V59.121C7.93241 59.6064 8.32593 59.9999 8.81132 59.9999C9.29671 59.9999 9.69023 59.6064 9.69023 59.121V45.7491C9.69023 44.1303 9.05987 42.6082 7.91507 41.4635L4.6937 38.2422C5.14511 37.72 5.72472 37.3023 6.39925 37.0422L11.0974 35.23L14.6839 40.6098C15.1187 41.2621 15.8155 41.6804 16.5956 41.7577C16.6825 41.7663 16.7691 41.7706 16.8553 41.7706C17.3347 41.7706 17.7987 41.6363 18.2034 41.3899L17.4332 59.0828C17.4121 59.5677 17.788 59.978 18.273 59.9991C18.286 59.9997 18.2991 59.9999 18.3119 59.9999C18.7798 59.9999 19.1688 59.6311 19.1893 59.1592L19.9036 42.7544H21.9008L22.6151 59.1592C22.6356 59.6311 23.0246 59.9999 23.4925 59.9999C23.5053 59.9999 23.5184 59.9997 23.5314 59.9991C24.0163 59.978 24.3923 59.5677 24.3712 59.0828L23.601 41.3899C24.0057 41.6364 24.4697 41.7706 24.9492 41.7706C25.0353 41.7706 25.1221 41.7662 25.2089 41.7577C25.9889 41.6804 26.6857 41.2621 27.1205 40.6098L30.707 35.23L35.4051 37.0422C36.0797 37.3023 36.6593 37.72 37.1107 38.2422L33.8893 41.4635C32.7445 42.6082 32.1142 44.1301 32.1142 45.7491V59.121C32.1142 59.6064 32.5077 59.9999 32.9931 59.9999C33.4785 59.9999 33.872 59.6064 33.872 59.121V45.7491C33.872 44.5997 34.3195 43.5192 35.1322 42.7065L37.9871 39.8516C38.1152 40.2905 38.1751 40.7544 38.1561 41.229L37.4408 59.0858C37.4214 59.5709 37.7988 59.9797 38.2839 59.9992C38.2959 59.9997 38.3078 59.9999 38.3197 59.9999C38.7888 59.9999 39.1783 59.6291 39.1973 59.1561L39.9125 41.2994C40.0162 38.706 38.4592 36.3361 36.0377 35.4021ZM13.2826 23.4235C13.1237 22.5587 12.3234 21.9311 11.4599 21.9945C11.386 21.9997 11.3096 21.9947 11.233 21.979C10.8458 21.8998 10.5539 21.4938 10.5539 21.0349V20.3721C10.5539 19.9231 10.8561 19.5182 11.2419 19.4506C11.566 19.3936 11.8775 19.5128 12.0743 19.7693C12.2381 19.9832 12.4567 20.136 12.7058 20.2112C13.0709 20.3215 13.4736 20.2569 13.7831 20.0384C14.4975 19.5341 15.1029 18.8945 15.5828 18.1375C15.8426 17.7274 15.7209 17.1845 15.3109 16.9246C14.901 16.6648 14.3579 16.7863 14.098 17.1965C13.8245 17.6281 13.4973 18.0072 13.1219 18.328C12.823 18.0648 12.4699 17.8763 12.0906 17.7723C11.8553 16.8825 11.4175 14.9057 11.4175 12.5119C11.4175 11.0804 11.8611 10.0738 12.7363 9.52021C13.4175 9.0892 14.1368 9.07268 14.137 9.07268C14.3641 9.07268 14.5823 8.98479 14.746 8.8274C14.7682 8.80607 17.0094 6.69342 20.9496 6.48049C24.521 6.28771 27.2796 7.191 28.927 9.0933C30.5958 11.0203 31.1457 13.9813 30.5316 17.6858C30.2674 17.6735 29.9746 17.6929 29.6834 17.7438L28.8026 15.6286C28.6339 15.2236 28.1926 15.0051 27.768 15.1164C27.6823 15.1389 19.1399 17.3185 15.5382 12.8345C15.2344 12.4561 14.6812 12.3956 14.3026 12.6996C13.9242 13.0036 13.8637 13.5569 14.1678 13.9353C17.8213 18.4838 25.097 17.4641 27.4638 16.9862L28.1484 18.6304C28.4284 19.3026 29.1445 19.6696 29.8506 19.5033C30.1275 19.4381 30.429 19.4262 30.5603 19.4523C30.9538 19.5306 31.2506 19.9217 31.2506 20.3621V21.0351C31.2506 21.4941 30.9586 21.8999 30.5715 21.9791C30.495 21.9948 30.4188 22 30.3445 21.9945C29.4824 21.9313 28.6808 22.5587 28.5219 23.4235C27.8466 27.1004 24.6419 29.7693 20.9023 29.7693C17.1626 29.7693 13.958 27.1004 13.2826 23.4235ZM17.4524 39.7643C17.2718 39.9445 17.0226 40.0335 16.7688 40.0084C16.5149 39.9833 16.2881 39.8472 16.1466 39.6348L12.5332 34.2148L14.0332 32.7149L19.6165 37.6002L17.4524 39.7643ZM19.98 40.9965L20.038 39.6642L20.9021 38.8001L21.7663 39.6642L21.8243 40.9965H19.98ZM20.9021 36.3893L15.7356 31.8686V29.9997C17.2323 30.9695 19.0111 31.527 20.9021 31.527C22.7932 31.527 24.572 30.9695 26.0687 29.9997V31.8686L20.9021 36.3893ZM25.6576 39.6348C25.516 39.8472 25.2893 39.9833 25.0353 40.0084C24.7814 40.0336 24.5324 39.9445 24.3518 39.7641L22.1878 37.6L27.7711 32.7147L29.2711 34.2145L25.6576 39.6348Z" fill="#849A9C"/>
<path d="M42.2045 0C37.9882 0 34.0152 1.63277 31.0177 4.59738C30.6726 4.93875 30.6695 5.49516 31.0108 5.84027C31.3521 6.18539 31.9086 6.18844 32.2537 5.84719C34.9202 3.21012 38.4541 1.75781 42.2045 1.75781C50.0076 1.75781 56.3559 8.10609 56.3559 15.9091C56.3559 23.7122 50.0076 30.0605 42.2045 30.0605C38.7013 30.0605 35.3396 28.7707 32.7387 26.4287C32.378 26.104 31.8223 26.133 31.4975 26.4937C31.1727 26.8545 31.2018 27.4102 31.5625 27.735C34.4868 30.3681 38.2662 31.8182 42.2045 31.8182C50.9768 31.8182 58.1137 24.6813 58.1137 15.909C58.1137 7.13684 50.9768 0 42.2045 0Z" fill="#849A9C"/>
<path d="M49.7193 15.0298H43.0831V8.39355C43.0831 7.90816 42.6895 7.51465 42.2042 7.51465C41.7188 7.51465 41.3253 7.90816 41.3253 8.39355V15.0298H35.6284C35.143 15.0298 34.7495 15.4233 34.7495 15.9087C34.7495 16.3942 35.143 16.7876 35.6284 16.7876H41.3253V23.4238C41.3253 23.9092 41.7188 24.3027 42.2042 24.3027C42.6895 24.3027 43.0831 23.9092 43.0831 23.4238V16.7876H49.7193C50.2047 16.7876 50.5982 16.3942 50.5982 15.9087C50.5982 15.4233 50.2047 15.0298 49.7193 15.0298Z" fill="#849A9C"/>
</g>
<defs>
<clipPath id="clip0_987_11624">
<rect width="60" height="60" fill="white"/>
</clipPath>
</defs>
</svg>
