<svg width="60" height="60" viewBox="0 0 60 60" fill="none" xmlns="http://www.w3.org/2000/svg">
<g clip-path="url(#clip0_987_11647)">
<path d="M32.2425 40.4865L27.7274 38.5155L27.1281 37.9162C30.2548 36.9445 32.5649 35.7975 32.674 35.743C32.8825 35.6387 33.0411 35.456 33.1148 35.2347C33.1885 35.0136 33.1713 34.7723 33.0671 34.5637C33.0509 34.5315 31.4517 31.2474 31.4517 23.8535V20.4371C31.4517 13.8302 26.0765 8.45508 19.4695 8.45508C12.8626 8.45508 7.48732 13.8302 7.48732 20.4371V23.8535C7.48732 31.1839 5.88654 34.5338 5.8719 34.5637C5.7676 34.7722 5.75049 35.0136 5.8242 35.2347C5.89791 35.456 6.05647 35.6387 6.26494 35.743C6.37299 35.797 8.6722 36.9385 11.7877 37.9091L11.1813 38.5155L6.66619 40.4865C4.38936 41.4804 2.93038 43.8157 3.03561 46.2977L3.58065 59.1589C3.60069 59.6312 3.98987 60.0007 4.45815 60.0007C4.47069 60.0007 4.48334 60.0004 4.496 59.9998C4.98104 59.9793 5.35744 59.5695 5.33694 59.0845L4.7919 46.2233C4.75545 45.3642 4.98467 44.5309 5.41475 43.8195L7.87814 46.7757C8.65041 47.7023 9.07568 48.877 9.07568 50.0832V59.1216C9.07568 59.607 9.46919 60.0005 9.95458 60.0005C10.44 60.0005 10.8335 59.607 10.8335 59.1216V50.0832C10.8335 48.4666 10.2635 46.8923 9.22861 45.6504L6.62189 42.5224C6.85439 42.3582 7.10318 42.2138 7.36955 42.0976L11.3329 40.3674L14.129 44.9061C14.3963 45.3399 14.8384 45.6342 15.3417 45.7135C15.4323 45.7278 15.5231 45.7348 15.6133 45.7348C16.0249 45.7348 16.4258 45.589 16.7437 45.3177L18.5756 43.7545V59.1216C18.5756 59.607 18.9691 60.0005 19.4545 60.0005C19.9399 60.0005 20.3334 59.607 20.3334 59.1216V43.7544L22.1651 45.3175C22.4831 45.5888 22.8839 45.7347 23.2955 45.7347C23.3859 45.7347 23.4767 45.7277 23.5672 45.7134C24.0705 45.6342 24.5125 45.3398 24.7798 44.906L27.5759 40.3673L31.5393 42.0975C31.8057 42.2137 32.0545 42.3581 32.287 42.5223L29.6802 45.6502C28.6452 46.8922 28.0754 48.4665 28.0754 50.0831V59.1216C28.0754 59.607 28.4689 60.0005 28.9543 60.0005C29.4397 60.0005 29.8332 59.607 29.8332 59.1216V50.0832C29.8332 48.8771 30.2584 47.7024 31.0307 46.7757L33.4941 43.8195C33.9242 44.5309 34.1533 45.3642 34.117 46.2233L33.5719 59.0845C33.5514 59.5694 33.9278 59.9792 34.4129 59.9998C34.4255 60.0004 34.4381 60.0007 34.4507 60.0007C34.919 60.0007 35.3082 59.6312 35.3282 59.1589L35.8732 46.2977C35.9784 43.8157 34.5194 41.4804 32.2425 40.4865ZM9.24501 20.4373C9.24525 14.7995 13.8318 10.213 19.4696 10.213C25.1072 10.213 29.694 14.7996 29.694 20.4373V23.8536C29.694 29.6056 30.6323 33.0438 31.1553 34.5132C30.1211 34.9787 28.0914 35.8294 25.7142 36.5021L25.2577 36.0457C25.0966 35.8845 24.8791 35.793 24.6515 35.789V34.2772C26.1296 33.3013 27.3344 31.9094 28.0797 30.2213C28.5231 29.2171 28.7726 28.1011 28.8009 26.9944C28.8949 23.3291 25.7743 22.4078 22.4704 21.4324C19.7368 20.6253 16.6385 19.7107 14.1037 17.245C13.7558 16.9065 13.1994 16.9141 12.8609 17.2622C12.5225 17.6101 12.5301 18.1665 12.8781 18.505C15.7243 21.2735 19.1889 22.2964 21.9727 23.1183C25.4376 24.1412 27.1005 24.7312 27.0437 26.9494C27.0212 27.829 26.8233 28.7148 26.4717 29.5113C25.2468 32.2855 22.4983 34.078 19.4695 34.078C15.7757 34.078 12.6106 31.442 11.9436 27.8102C11.7856 26.9503 10.9904 26.3259 10.1308 26.3891C10.0502 26.3949 9.96619 26.3879 9.88193 26.368C9.51888 26.2821 9.24513 25.8873 9.24513 25.4498V24.7943C9.24513 24.3548 9.54056 23.9586 9.91743 23.8925C10.2345 23.8367 10.539 23.9535 10.7313 24.2041C10.8945 24.4171 11.1123 24.5694 11.3608 24.6444C11.7248 24.7544 12.1261 24.6899 12.4346 24.4721C13.1422 23.9727 13.7418 23.3393 14.2169 22.5895C14.4767 22.1795 14.3551 21.6365 13.945 21.3766C13.535 21.1169 12.992 21.2385 12.7322 21.6485C12.4637 22.072 12.1429 22.4444 11.7752 22.7599C11.1914 22.2493 10.4018 22.0227 9.61345 22.1611C9.48654 22.1833 9.36408 22.2172 9.24501 22.2578V20.4373ZM7.78392 34.513C8.16842 33.4326 8.77673 31.287 9.0724 27.9424C9.20201 27.9991 9.33701 28.0453 9.47705 28.0785C9.72232 28.1366 9.97122 28.159 10.2179 28.1448C10.6961 30.7221 12.1988 32.8884 14.2573 34.2589V35.789C14.0375 35.7929 13.8188 35.8781 13.6511 36.0458L13.2015 36.4954C10.839 35.8249 8.81611 34.9773 7.78392 34.513ZM15.6161 43.9688L12.7943 39.3884L14.2726 37.9101L18.1603 41.7978L15.6161 43.9688ZM19.4544 40.606L16.015 37.1668V35.1781C17.0896 35.6025 18.2559 35.8358 19.4695 35.8358C20.6633 35.8358 21.8211 35.6084 22.8936 35.1885V37.1668L19.4544 40.606ZM23.2926 43.9688L20.7486 41.7978L24.6363 37.9101L26.1146 39.3884L23.2926 43.9688Z" fill="#849A9C"/>
<path d="M16.0001 49.6055H13.4092C12.9238 49.6055 12.5303 49.999 12.5303 50.4844C12.5303 50.9698 12.9238 51.3633 13.4092 51.3633H16.0001C16.4855 51.3633 16.879 50.9698 16.879 50.4844C16.879 49.999 16.4855 49.6055 16.0001 49.6055Z" fill="#849A9C"/>
<path d="M55.8115 9.93984C55.6291 9.48984 55.1168 9.27293 54.6669 9.45515C54.217 9.63738 54 10.1498 54.1822 10.5997C54.8653 12.286 55.2116 14.0722 55.2116 15.9086C55.2116 23.7117 48.8633 30.0599 41.0603 30.0599C38.8745 30.0599 36.7792 29.5754 34.8324 28.6196C34.3967 28.4057 33.87 28.5855 33.656 29.0212C33.4422 29.457 33.6219 29.9835 34.0576 30.1975C36.2475 31.2726 38.6036 31.8177 41.0602 31.8177C49.8325 31.8177 56.9693 24.6809 56.9693 15.9086C56.9693 13.845 56.5798 11.8367 55.8115 9.93984Z" fill="#849A9C"/>
<path d="M47.0418 1.16273C45.1413 0.391171 43.1289 0 41.0607 0C35.3872 0 30.1014 3.05706 27.2664 7.97834C27.0241 8.39893 27.1686 8.93623 27.5893 9.17858C27.7275 9.25826 27.8783 9.296 28.0272 9.296C28.3312 9.296 28.627 9.13803 28.7895 8.85573C31.3117 4.47761 36.0138 1.75781 41.0607 1.75781C42.9012 1.75781 44.691 2.10562 46.3805 2.79152C46.8304 2.9741 47.3428 2.75753 47.5255 2.30777C47.7082 1.858 47.4916 1.34531 47.0418 1.16273Z" fill="#849A9C"/>
<path d="M55.9785 4.30011C55.8424 3.97164 55.5219 3.75754 55.1665 3.75754H53.2271V1.81832C53.2271 1.46278 53.013 1.14239 52.6846 1.00633C52.3563 0.870394 51.9782 0.945511 51.7268 1.19688L47.0298 5.89386C46.8651 6.05863 46.7725 6.2821 46.7725 6.5153V8.96944L40.4542 15.2877C40.111 15.631 40.111 16.1874 40.4542 16.5306C40.6258 16.7022 40.8508 16.7879 41.0756 16.7879C41.3005 16.7879 41.5255 16.7022 41.6971 16.5306L48.0154 10.2123H50.4695C50.7026 10.2123 50.9262 10.1196 51.0909 9.95487L55.7879 5.25788C56.0393 5.00652 56.1145 4.62847 55.9785 4.30011ZM50.1055 8.45452H48.5303V6.87929L51.4695 3.94023V4.63644C51.4695 5.12183 51.863 5.51535 52.3484 5.51535H53.0447L50.1055 8.45452Z" fill="#849A9C"/>
<path d="M49.1397 13.5711C49.0048 13.1048 48.5175 12.8364 48.051 12.9712C47.5847 13.1062 47.3161 13.5936 47.4511 14.0599C47.6241 14.6576 47.7118 15.2796 47.7118 15.9087C47.7118 19.5679 44.7348 22.5449 41.0756 22.5449C37.4165 22.5449 34.4394 19.5678 34.4394 15.9087C34.4394 12.2495 37.4165 9.27246 41.0756 9.27246C41.7076 9.27246 42.3322 9.36093 42.9324 9.53543C43.3987 9.67101 43.8862 9.403 44.0217 8.93695C44.1573 8.4709 43.8893 7.98316 43.4233 7.84758C42.6637 7.62668 41.8737 7.51465 41.0756 7.51465C36.4472 7.51465 32.6816 11.2802 32.6816 15.9087C32.6816 20.5372 36.4472 24.3027 41.0756 24.3027C45.7041 24.3027 49.4697 20.5371 49.4697 15.9087C49.4697 15.1142 49.3586 14.3277 49.1397 13.5711Z" fill="#849A9C"/>
</g>
<defs>
<clipPath id="clip0_987_11647">
<rect width="60" height="60" fill="white"/>
</clipPath>
</defs>
</svg>
