<svg width="60" height="60" viewBox="0 0 60 60" fill="none" xmlns="http://www.w3.org/2000/svg">
<path d="M51.606 58.2422H47.3168L47.7854 41.3119C47.8587 38.6629 46.3415 36.2554 43.92 35.1785L38.9188 32.9544C38.8886 32.9409 38.858 32.9298 38.8272 32.92L38.1211 32.3168C41.6892 31.2346 44.3575 29.9099 44.4839 29.8467C44.916 29.6307 45.0913 29.1038 44.8784 28.6703C44.8604 28.6338 43.091 24.9375 43.091 16.8485V13.0909C43.091 5.8725 37.2184 0 30 0C22.7816 0 16.9091 5.8725 16.9091 13.0909V16.8485C16.9091 24.9375 15.1396 28.6338 15.1232 28.6675C14.906 29.1016 15.0821 29.6296 15.5162 29.8467C15.6436 29.9104 18.3115 31.235 21.8788 32.317L21.0772 33.0018L16.1823 35.1786C13.7609 36.2554 12.2437 38.6628 12.3169 41.312L12.7855 58.2422H8.39404C7.90865 58.2422 7.51514 58.6357 7.51514 59.1211C7.51514 59.6065 7.90865 60 8.39404 60H51.606C52.0914 60 52.4849 59.6065 52.4849 59.1211C52.4849 58.6357 52.0914 58.2422 51.606 58.2422ZM18.6667 13.0911C18.6669 6.84188 23.7509 1.75781 30 1.75781C36.2492 1.75781 41.3332 6.84188 41.3332 13.0909V16.8485C41.3332 23.2696 42.3963 27.0577 42.9622 28.6191C41.7932 29.1478 39.352 30.1784 36.5194 30.9486L36.2072 30.682C36.0318 30.5321 35.8047 30.459 35.5759 30.4747V28.2895C37.2223 27.223 38.5643 25.6864 39.3898 23.8167C39.8729 22.7225 40.1446 21.5067 40.1755 20.3007C40.2771 16.3368 36.8763 15.3327 33.2758 14.2697C30.2595 13.3792 26.8406 12.37 24.0372 9.64289C23.6891 9.30445 23.1328 9.31219 22.7944 9.66C22.456 10.008 22.4636 10.5645 22.8115 10.9029C25.9265 13.9328 29.7256 15.0544 32.7781 15.9557C36.6326 17.0936 38.4825 17.7517 38.4183 20.2556C38.3932 21.2346 38.1731 22.2205 37.7817 23.1068C36.4206 26.1898 33.366 28.1818 30 28.1818C25.8951 28.1818 22.3776 25.2523 21.6361 21.2161C21.4704 20.3138 20.635 19.6589 19.7351 19.7248C19.6367 19.732 19.536 19.7234 19.4347 19.6995C18.9971 19.5959 18.6668 19.125 18.6668 18.6042V17.8833C18.6668 17.3497 19.0159 16.8861 19.4789 16.8049C19.8604 16.7379 20.227 16.8785 20.4591 17.1811C20.6274 17.4005 20.8514 17.5573 21.107 17.6345C21.4814 17.7476 21.8944 17.6814 22.212 17.4572C22.9807 16.9146 23.6324 16.2262 24.1487 15.4113C24.4085 15.0013 24.2869 14.4584 23.8769 14.1984C23.4668 13.9386 22.9239 14.0604 22.664 14.4703C22.3498 14.9661 21.9713 15.3993 21.5356 15.7622C20.9081 15.1825 20.0406 14.9216 19.1749 15.0735C18.9983 15.1045 18.8288 15.1538 18.6667 15.2175V13.0911ZM26.1818 32.3735V29.2022C27.3676 29.6779 28.6573 29.9394 29.9999 29.9394C31.333 29.9394 32.6249 29.679 33.818 29.1997V32.3734L31.1652 36.0626C31.1622 36.0668 31.1597 36.0714 31.1567 36.0757C31.1537 36.0799 31.1503 36.0838 31.1474 36.0881L30.0503 37.7338C30.044 37.7433 30.0324 37.7607 29.9999 37.7607C29.9674 37.7607 29.9558 37.7433 29.9495 37.7338L28.8524 36.0881C28.8495 36.0838 28.8461 36.0799 28.8431 36.0757C28.8401 36.0714 28.8378 36.0668 28.8346 36.0626L26.1818 32.3735ZM26.9047 36.3894L25.6374 37.3399C25.3995 37.5184 25.0971 37.5816 24.8077 37.5132C24.5183 37.4449 24.276 37.2532 24.1431 36.9873L22.6392 33.9793L24.208 32.6392L26.9047 36.3894ZM35.7921 32.6392L37.361 33.9793L35.857 36.9873C35.724 37.2533 35.4818 37.4449 35.1925 37.5132C34.903 37.5816 34.6007 37.5184 34.3628 37.34L33.0954 36.3894L35.7921 32.6392ZM17.0378 28.6192C17.461 27.4518 18.1619 25.039 18.4887 21.2122C18.6601 21.2967 18.8404 21.365 19.0299 21.4099C19.3026 21.4744 19.5795 21.4976 19.8528 21.4786C19.873 21.4868 19.9024 21.5164 19.9072 21.5336C20.4333 24.3976 22.1185 26.7988 24.4241 28.2921V30.4747C24.1953 30.459 23.9683 30.5321 23.7928 30.682L23.4808 30.9486C20.6479 30.1782 18.2066 29.1478 17.0378 28.6192ZM16.8965 36.7847L21.1342 34.9001L22.5708 37.7734C22.9376 38.5069 23.6057 39.0356 24.4037 39.2239C24.6145 39.2738 24.8278 39.2982 25.0398 39.2982C25.6301 39.2982 26.2092 39.1083 26.6921 38.7463L27.9054 37.8362L28.4872 38.7089C28.8252 39.216 29.3908 39.5187 30.0001 39.5187C30.6095 39.5187 31.1751 39.216 31.513 38.7089L32.0947 37.8362L33.3081 38.7463C33.7909 39.1083 34.3701 39.2982 34.9603 39.2982C35.1722 39.2982 35.3856 39.2738 35.5964 39.2239C36.3946 39.0356 37.0626 38.5069 37.4294 37.7734L38.8846 34.8629L43.206 36.7847C43.5455 36.9356 43.8603 37.1227 44.1475 37.3396L40.9527 41.3331H19.15L15.9551 37.3396C16.2422 37.1228 16.557 36.9357 16.8965 36.7847ZM16.0814 44.2438L16.8121 57.3952C16.8286 57.6932 16.8928 57.9776 16.9958 58.2422H14.5442L14.074 41.2632C14.048 40.3237 14.2967 39.4263 14.7612 38.6612L17.2826 41.8129C17.1198 41.9235 16.9681 42.0512 16.8314 42.1957C16.3129 42.7439 16.0395 43.4904 16.0814 44.2438ZM42.1638 44.1464L41.4332 57.2979C41.4038 57.8275 40.9653 58.2423 40.4349 58.2423H19.5653V58.2422C19.0349 58.2422 18.5964 57.8273 18.567 57.2978L17.8363 44.1463C17.821 43.8691 17.9175 43.6055 18.1083 43.4038C18.2991 43.2021 18.557 43.0911 18.8346 43.0911H41.1655C41.4431 43.0911 41.7011 43.2021 41.8919 43.4038C42.0826 43.6055 42.1792 43.8691 42.1638 44.1464ZM45.5583 58.2422H43.0044C43.1074 57.9776 43.1717 57.6932 43.1882 57.3953L43.9188 44.2439C43.9607 43.4904 43.6873 42.7439 43.1688 42.1957C43.0506 42.0708 42.921 41.9586 42.7831 41.8589L45.3413 38.6611C45.8057 39.4263 46.0544 40.3239 46.0283 41.2632L45.5583 58.2422Z" fill="#849A9C"/>
<path d="M29.9999 47.9082C28.2203 47.9082 26.7725 49.3559 26.7725 51.1357C26.7725 52.9154 28.2202 54.3631 29.9999 54.3631C31.7797 54.3631 33.2274 52.9154 33.2274 51.1357C33.2274 49.3559 31.7795 47.9082 29.9999 47.9082ZM29.9999 52.6052C29.1896 52.6052 28.5303 51.9459 28.5303 51.1355C28.5303 50.3252 29.1895 49.6659 29.9999 49.6659C30.8104 49.6659 31.4696 50.3252 31.4696 51.1355C31.4696 51.9459 30.8103 52.6052 29.9999 52.6052Z" fill="#849A9C"/>
</svg>
