<svg width="61" height="40" viewBox="0 0 61 40" fill="none" xmlns="http://www.w3.org/2000/svg">
<g clip-path="url(#clip0_989_11703)">
<path d="M40.8376 22.4322L35.7303 20.1623C35.3695 20.002 35.1365 19.6432 35.1365 19.2486V17.846C36.8522 16.4791 37.9549 14.374 37.9549 12.015V10.0408C38.5201 9.72845 38.8943 9.12494 38.8943 8.449V8.2574C38.8943 4.14692 35.5501 0.802734 31.4396 0.802734H29.5608C25.4504 0.802734 22.1062 4.14692 22.1062 8.2574V9.99588C22.1062 10.59 22.3619 11.1283 22.8076 11.4727C22.8831 11.531 22.9627 11.5824 23.0456 11.6268V12.0149C23.0456 14.3739 24.1482 16.4789 25.8637 17.8458V19.2484C25.8637 19.6431 25.6306 20.0018 25.2699 20.1621L20.1626 22.4321C18.49 23.1754 17.4092 24.8385 17.4092 26.6689V38.3178C17.4092 38.8032 17.8027 39.1967 18.2881 39.1967C18.7735 39.1967 19.167 38.8032 19.167 38.3178V26.669C19.167 26.5672 19.1743 26.4665 19.1848 26.3667L21.5382 28.72C21.9044 29.0863 22.1062 29.5733 22.1062 30.0913V38.3179C22.1062 38.8033 22.4997 39.1968 22.9851 39.1968C23.4705 39.1968 23.864 38.8033 23.864 38.3179V30.0913C23.864 29.1038 23.4795 28.1754 22.7812 27.4771L19.9756 24.6714C20.2284 24.4091 20.5316 24.1918 20.8766 24.0384L25.8978 21.8068L29.6214 25.5304V38.3178C29.6214 38.8032 30.015 39.1967 30.5003 39.1967C30.9857 39.1967 31.3793 38.8032 31.3793 38.3178V25.5305L35.1029 21.8069L40.1239 24.0384C40.4689 24.1918 40.7722 24.4091 41.025 24.6715L38.2194 27.4771C37.5211 28.1754 37.1366 29.1038 37.1366 30.0913V38.3179C37.1366 38.8033 37.5301 39.1968 38.0155 39.1968C38.5009 39.1968 38.8944 38.8033 38.8944 38.3179V30.0913C38.8944 29.5734 39.0961 29.0863 39.4624 28.72L41.8156 26.3668C41.8262 26.4666 41.8335 26.567 41.8335 26.6689V38.3178C41.8335 38.8032 42.227 39.1967 42.7124 39.1967C43.1978 39.1967 43.5913 38.8032 43.5913 38.3178V26.669C43.5909 24.8386 42.5102 23.1755 40.8376 22.4322ZM30.5 23.9235L27.2327 20.6561C27.4811 20.2381 27.6214 19.7544 27.6214 19.2486V18.8909C28.5077 19.2633 29.4802 19.4697 30.5001 19.4697C31.52 19.4697 32.4924 19.2634 33.3786 18.891V19.2486C33.3786 19.7546 33.5189 20.2381 33.7674 20.6562L30.5 23.9235ZM30.5001 17.7118C27.3589 17.7119 24.8033 15.1562 24.8033 12.015V11.6197C25.3517 11.4024 25.887 11.0564 26.3995 10.5836C26.7561 10.2544 26.7785 9.69834 26.4492 9.34162C26.12 8.98501 25.564 8.96263 25.2072 9.29181C24.7676 9.69763 24.3284 9.95978 23.9021 10.0711C23.8918 10.0738 23.8842 10.075 23.8788 10.0754C23.8724 10.0631 23.8639 10.0374 23.8639 9.99599V8.25751C23.8639 5.1163 26.4195 2.56067 29.5607 2.56067H31.4395C34.5808 2.56067 37.1363 5.1163 37.1363 8.25751V8.44912C37.1363 8.47759 37.1192 8.50232 37.0967 8.50677C31.8337 9.54623 29.1939 7.5872 28.3033 6.69657C27.9601 6.35333 27.4035 6.35333 27.0604 6.69657C26.7172 7.03982 26.7172 7.59634 27.0604 7.93947C29.7897 10.6688 33.7723 10.718 36.197 10.4267V12.0149C36.197 15.1561 33.6413 17.7118 30.5001 17.7118Z" fill="#849A9C"/>
<path d="M16.3487 17.6519V15.7728C16.3487 13.4799 15.1571 11.4615 13.3617 10.2999C13.4726 9.94423 13.5305 9.57169 13.5305 9.19704C13.5305 7.15844 11.872 5.5 9.83342 5.5C7.79482 5.5 6.13638 7.15856 6.13638 9.19704C6.13638 9.57638 6.1938 9.94528 6.30489 10.3001C4.50958 11.4616 3.31813 13.48 3.31813 15.7728V17.6515C3.31813 19.8719 4.43528 21.8353 6.13626 23.0121V24.9448C6.13626 25.3261 5.9245 25.6687 5.5836 25.8392L2.54364 27.3591C1.28305 27.9896 0.5 29.2567 0.5 30.6661V38.3183C0.5 38.8037 0.893516 39.1972 1.37891 39.1972C1.8643 39.1972 2.25782 38.8037 2.25782 38.3183V31.0462L3.68962 32.478C4.05583 32.8443 4.25762 33.3313 4.25762 33.8494V38.3183C4.25762 38.8037 4.65114 39.1972 5.13653 39.1972C5.62192 39.1972 6.01544 38.8037 6.01544 38.3183V33.8494C6.01544 32.8618 5.63083 31.9335 4.93263 31.2351L2.93985 29.2424C2.93024 29.2327 2.91993 29.2244 2.91008 29.2154C3.03512 29.105 3.1754 29.0089 3.32985 28.9316L6.36982 27.4116C6.52556 27.3337 6.67052 27.2417 6.80564 27.1395L8.95451 29.2885V38.3184C8.95451 38.8038 9.34802 39.1973 9.83342 39.1973C10.3188 39.1973 10.7123 38.8038 10.7123 38.3184V29.2884L12.8613 27.1394C12.9965 27.2417 13.1414 27.3337 13.2971 27.4115L14.1354 27.8307C14.2616 27.8939 14.3957 27.9238 14.5278 27.9238C14.8502 27.9238 15.1607 27.7456 15.3146 27.4378C15.5318 27.0036 15.3558 26.4757 14.9216 26.2586L14.0833 25.8395C13.7423 25.6689 13.5306 25.3263 13.5306 24.9452V23.0124C15.2316 21.8356 16.3487 19.8721 16.3487 17.6519ZM9.83342 7.25782C10.9028 7.25782 11.7726 8.12782 11.7726 9.19704C11.7726 9.31481 11.7621 9.43024 11.7419 9.54333C11.1379 9.35794 10.4973 9.25751 9.83342 9.25751C9.17048 9.25751 8.53064 9.35759 7.92759 9.54251C7.90732 9.42942 7.89419 9.31458 7.89419 9.19704C7.89419 8.1277 8.76408 7.25782 9.83342 7.25782ZM9.83342 11.0154C12.4567 11.0154 14.5909 13.1497 14.5909 15.7729V16.0914C10.9317 17.2117 8.75095 14.4282 8.65779 14.3062C8.50486 14.1024 8.27107 13.9749 8.01701 13.9569C7.76294 13.939 7.51333 14.032 7.33322 14.2121C6.49427 15.051 5.67255 15.4557 5.07911 15.651C5.14415 13.0839 7.25107 11.0154 9.83342 11.0154ZM9.83342 27.6813L7.80244 25.6503C7.86173 25.4237 7.89419 25.1874 7.89419 24.945V23.8721C8.50697 24.0636 9.15841 24.1668 9.83342 24.1668C10.5084 24.1668 11.1599 24.0636 11.7726 23.8721V24.945C11.7726 25.1874 11.8051 25.4238 11.8644 25.6503L9.83342 27.6813ZM9.83342 22.409C7.21017 22.409 5.07595 20.2748 5.07595 17.6515V17.4694C5.77685 17.3084 6.81607 16.9342 7.90017 16.0624C8.28373 16.4242 8.83193 16.8681 9.53002 17.2489C10.3557 17.6992 11.4961 18.1158 12.889 18.1158C13.4183 18.1158 13.9847 18.0543 14.5834 17.913C14.4471 20.4152 12.3689 22.409 9.83342 22.409Z" fill="#849A9C"/>
<path d="M58.4563 25.4805L53.5376 23.0211C53.1967 22.8506 52.9849 22.508 52.9849 22.1269V20.8813C54.1363 19.859 54.8637 18.3694 54.8637 16.7123V15.7119C54.8839 15.7119 54.9039 15.7125 54.9241 15.7125C55.4095 15.7125 55.803 15.319 55.803 14.8336V12.9548C55.803 9.88028 53.3017 7.37891 50.2271 7.37891H48.3484C45.2738 7.37891 42.7725 9.88028 42.7725 12.9548V14.8336C42.7725 15.319 43.166 15.7125 43.6514 15.7125C43.6586 15.7125 43.6797 15.7122 43.7118 15.711V16.7123C43.7118 18.3695 44.4393 19.8592 45.5907 20.8814V22.127C45.5907 22.5082 45.379 22.8509 45.0379 23.0212C44.6038 23.2383 44.4277 23.7662 44.6449 24.2004C44.7989 24.5084 45.1093 24.6865 45.4317 24.6865C45.5638 24.6865 45.6978 24.6566 45.824 24.5936C45.9798 24.5156 46.1247 24.4236 46.2598 24.3214L48.4088 26.4704V38.3185C48.4088 38.8039 48.8024 39.1974 49.2877 39.1974C49.7731 39.1974 50.1667 38.8039 50.1667 38.3185V26.4702L52.3155 24.3212C52.4508 24.4235 52.5956 24.5155 52.7513 24.5933L57.5109 26.9732L56.0673 28.4168C55.3691 29.1151 54.9845 30.0435 54.9845 31.031V38.3182C54.9845 38.8036 55.378 39.1971 55.8634 39.1971C56.3488 39.1971 56.7423 38.8036 56.7423 38.3182V31.031C56.7423 30.5131 56.944 30.026 57.3103 29.6597L58.6778 28.2922C58.7192 28.4513 58.742 28.6171 58.742 28.7872V38.3182C58.742 38.8036 59.1355 39.1971 59.6209 39.1971C60.1063 39.1971 60.4998 38.8036 60.4998 38.3182V28.7872C60.4999 27.3779 59.7169 26.1109 58.4563 25.4805ZM44.5302 13.7738V12.9547H44.5303C44.5303 10.8494 46.2431 9.1366 48.3484 9.1366H50.2271C52.3324 9.1366 54.0452 10.8494 54.0452 12.9547V13.931C50.2245 13.7249 47.9189 12.2381 47.8965 12.2234C47.7478 12.1243 47.5781 12.0758 47.4092 12.0758C47.1824 12.0758 46.9574 12.1634 46.7874 12.3333C45.9465 13.1742 45.1225 13.579 44.5302 13.7738ZM49.2877 24.8632L47.2568 22.8322C47.3161 22.6056 47.3485 22.3693 47.3485 22.1269V21.9397C47.9527 22.1646 48.6061 22.2881 49.2877 22.2881C49.9694 22.2881 50.6227 22.1646 51.227 21.9397V22.1269C51.227 22.3693 51.2593 22.6056 51.3187 22.8322L49.2877 24.8632ZM49.2877 20.5304C47.1825 20.5304 45.4697 18.8177 45.4697 16.7123V15.2954C46.0852 15.0494 46.8024 14.6584 47.5323 14.0366C48.4552 14.5168 50.3863 15.3469 53.1058 15.6211V16.7123C53.1058 18.8176 51.393 20.5304 49.2877 20.5304Z" fill="#849A9C"/>
</g>
<defs>
<clipPath id="clip0_989_11703">
<rect width="61" height="40" fill="white"/>
</clipPath>
</defs>
</svg>
