<svg width="60" height="60" viewBox="0 0 60 60" fill="none" xmlns="http://www.w3.org/2000/svg">
<path d="M57.2423 6.10547H2.75766C1.23715 6.10547 0 7.34262 0 8.86313V48.3175C0 49.8381 1.23715 51.0751 2.75766 51.0751H36.5757C37.0611 51.0751 37.4547 50.6816 37.4547 50.1962C37.4547 49.7108 37.0611 49.3173 36.5757 49.3173H2.75766C2.20629 49.3173 1.75781 48.8687 1.75781 48.3175V8.86313C1.75781 8.31188 2.20641 7.86328 2.75766 7.86328H57.2423C57.7937 7.86328 58.2422 8.31188 58.2422 8.86313V48.3175C58.2422 48.8688 57.7936 49.3173 57.2423 49.3173H49.7272C49.2418 49.3173 48.8483 49.7108 48.8483 50.1962C48.8483 50.6816 49.2418 51.0751 49.7272 51.0751H57.2423C58.763 51.0751 60 49.838 60 48.3175V8.86313C60 7.34262 58.7629 6.10547 57.2423 6.10547Z" fill="#849A9C"/>
<path d="M55.3637 15.5006C52.7404 15.5006 50.6062 13.3665 50.6062 10.7432C50.6062 10.2578 50.2127 9.86426 49.7273 9.86426H10.2728C9.78745 9.86426 9.39394 10.2578 9.39394 10.7432C9.39394 13.3664 7.25983 15.5006 4.63647 15.5006C4.15108 15.5006 3.75757 15.8941 3.75757 16.3795V40.8036C3.75757 41.289 4.15108 41.6825 4.63647 41.6825C7.25983 41.6827 9.39394 43.8168 9.39394 46.44C9.39394 46.9254 9.78745 47.3189 10.2728 47.3189H36.5758C37.0612 47.3189 37.4547 46.9254 37.4547 46.44C37.4547 45.9546 37.0612 45.5611 36.5758 45.5611H11.0927C10.7012 42.6702 8.4064 40.3753 5.51538 39.9838V17.1994C8.40628 16.8079 10.7012 14.5131 11.0927 11.6221H48.9075C49.299 14.513 51.5937 16.8079 54.4848 17.1994V39.9838C51.3063 40.4142 48.8484 43.1454 48.8484 46.44C48.8484 46.9254 49.2419 47.3189 49.7273 47.3189C50.2127 47.3189 50.6062 46.9254 50.6062 46.44C50.6062 43.8168 52.7403 41.6825 55.3637 41.6825C55.8491 41.6825 56.2426 41.289 56.2426 40.8036V16.3795C56.2426 15.8941 55.8491 15.5006 55.3637 15.5006Z" fill="#849A9C"/>
<path d="M4.64605 9.86426H4.63667C4.15128 9.86426 3.76245 10.2578 3.76245 10.7432C3.76245 11.2286 4.16054 11.6221 4.64605 11.6221C5.13144 11.6221 5.52495 11.2286 5.52495 10.7432C5.52495 10.2578 5.13144 9.86426 4.64605 9.86426Z" fill="#849A9C"/>
<path d="M55.3736 45.5596H55.3642C54.8788 45.5596 54.49 45.9531 54.49 46.4385C54.49 46.9239 54.8882 47.3174 55.3736 47.3174C55.859 47.3174 56.2525 46.9239 56.2525 46.4385C56.2525 45.9531 55.859 45.5596 55.3736 45.5596Z" fill="#849A9C"/>
<path d="M4.6458 45.5596H4.63643C4.15104 45.5596 3.76221 45.9531 3.76221 46.4385C3.76221 46.9239 4.16041 47.3174 4.6458 47.3174C5.13119 47.3174 5.52471 46.9239 5.52471 46.4385C5.52471 45.9531 5.13119 45.5596 4.6458 45.5596Z" fill="#849A9C"/>
<path d="M55.3628 9.86426H55.3535C54.8681 9.86426 54.4792 10.2578 54.4792 10.7432C54.4792 11.2286 54.8775 11.6221 55.3628 11.6221C55.8482 11.6221 56.2417 11.2287 56.2417 10.7432C56.2417 10.2578 55.8482 9.86426 55.3628 9.86426Z" fill="#849A9C"/>
<path d="M43.1518 30.5303C39.5593 30.5303 36.6365 33.4529 36.6365 37.0455C36.6365 39.2659 37.7536 41.2294 39.4546 42.4061V53.0152C39.4546 53.3393 39.633 53.6372 39.9188 53.7901C40.0487 53.8596 40.1912 53.8941 40.3335 53.8941C40.504 53.8941 40.6741 53.8445 40.8211 53.7464L43.1518 52.1926L45.4825 53.7464C45.7521 53.9262 46.0989 53.9429 46.3847 53.79C46.6704 53.6371 46.8489 53.3393 46.8489 53.0152V42.4061C48.5498 41.2294 49.667 39.2659 49.667 37.0455C49.667 33.453 46.7443 30.5303 43.1518 30.5303ZM45.091 51.3729L43.6391 50.405C43.3438 50.2082 42.9592 50.2082 42.6641 50.405L41.2124 51.3729V43.266C41.8252 43.4575 42.4766 43.5607 43.1516 43.5607C43.8267 43.5607 44.4781 43.4573 45.091 43.266V51.3729ZM43.1518 41.803C40.5285 41.803 38.3943 39.6688 38.3943 37.0455C38.3943 34.4223 40.5284 32.2881 43.1518 32.2881C45.7751 32.2881 47.9092 34.4222 47.9092 37.0455C47.9092 39.6689 45.775 41.803 43.1518 41.803Z" fill="#849A9C"/>
<path d="M45.2185 37.2248C44.7986 36.9816 44.2607 37.1249 44.0174 37.545C43.8387 37.8535 43.5067 38.0453 43.151 38.0453C42.5996 38.0453 42.1511 37.5967 42.1511 37.0454C42.1511 36.6895 42.3428 36.3575 42.6515 36.1788C43.0716 35.9357 43.2151 35.398 42.9719 34.9779C42.7288 34.5578 42.1911 34.4142 41.771 34.6575C40.9212 35.1493 40.3933 36.0643 40.3933 37.0454C40.3932 38.566 41.6303 39.8031 43.151 39.8031C44.1318 39.8031 45.0467 39.2754 45.5386 38.4259C45.7819 38.0059 45.6386 37.4681 45.2185 37.2248Z" fill="#849A9C"/>
<path d="M36.5756 16.4385H23.4241C22.9387 16.4385 22.5452 16.832 22.5452 17.3174C22.5452 17.8028 22.9387 18.1963 23.4241 18.1963H36.5756C37.061 18.1963 37.4545 17.8028 37.4545 17.3174C37.4545 16.832 37.061 16.4385 36.5756 16.4385Z" fill="#849A9C"/>
<path d="M23.4238 20.1973H19.6663C19.1809 20.1973 18.7874 20.5908 18.7874 21.0762C18.7874 21.5616 19.1809 21.9551 19.6663 21.9551H23.4238C23.9091 21.9551 24.3027 21.5616 24.3027 21.0762C24.3027 20.5908 23.9091 20.1973 23.4238 20.1973Z" fill="#849A9C"/>
<path d="M40.3332 20.1973H27.1821C26.6967 20.1973 26.3032 20.5908 26.3032 21.0762C26.3032 21.5616 26.6967 21.9551 27.1821 21.9551H40.3332C40.8186 21.9551 41.2121 21.5616 41.2121 21.0762C41.2121 20.5908 40.8186 20.1973 40.3332 20.1973Z" fill="#849A9C"/>
<path d="M45.9695 26.7725H14.0303C13.5449 26.7725 13.1514 27.166 13.1514 27.6514C13.1514 28.1368 13.5449 28.5303 14.0303 28.5303H45.9696C46.455 28.5303 46.8484 28.1369 46.8484 27.6514C46.8484 27.166 46.4549 26.7725 45.9695 26.7725Z" fill="#849A9C"/>
<path d="M35.6363 30.5303H21.5457C21.0603 30.5303 20.6667 30.9238 20.6667 31.4092C20.6667 31.8946 21.0603 32.2881 21.5457 32.2881H35.6363C36.1217 32.2881 36.5152 31.8947 36.5152 31.4092C36.5152 30.9238 36.1217 30.5303 35.6363 30.5303Z" fill="#849A9C"/>
<path d="M17.7877 30.5303H14.0303C13.5449 30.5303 13.1514 30.9238 13.1514 31.4092C13.1514 31.8946 13.5448 32.2881 14.0303 32.2881H17.7877C18.273 32.2881 18.6666 31.8946 18.6666 31.4092C18.6666 30.9238 18.273 30.5303 17.7877 30.5303Z" fill="#849A9C"/>
<path d="M33.7574 34.2881H14.0303C13.5449 34.2881 13.1514 34.6816 13.1514 35.167C13.1514 35.6524 13.5449 36.0459 14.0303 36.0459H33.7575C34.2429 36.0459 34.6364 35.6524 34.6364 35.167C34.6364 34.6816 34.2429 34.2881 33.7574 34.2881Z" fill="#849A9C"/>
<path d="M27.1818 38.0449H14.0303C13.5449 38.0449 13.1514 38.4384 13.1514 38.9238C13.1514 39.4092 13.5449 39.8027 14.0303 39.8027H27.1818C27.6671 39.8027 28.0607 39.4092 28.0607 38.9238C28.0607 38.4384 27.6671 38.0449 27.1818 38.0449Z" fill="#849A9C"/>
<path d="M33.7578 38.0449H30.9392C30.4538 38.0449 30.0603 38.4384 30.0603 38.9238C30.0603 39.4092 30.4538 39.8027 30.9392 39.8027H33.7578C34.2432 39.8027 34.6367 39.4092 34.6367 38.9238C34.6367 38.4384 34.2433 38.0449 33.7578 38.0449Z" fill="#849A9C"/>
</svg>
