<svg width="60" height="60" viewBox="0 0 60 60" fill="none" xmlns="http://www.w3.org/2000/svg">
<path d="M52.5452 20.6666H50.6059V9.33342C50.6059 8.33076 49.7903 7.51513 48.7876 7.51513H46.9089C45.9062 7.51513 45.0906 8.33076 45.0906 9.33342V9.39389H39.3333V3.69704C39.3333 2.69438 38.5177 1.87875 37.515 1.87875H35.6363C34.6336 1.87875 33.818 2.69438 33.818 3.69704V3.75751H31.8183V1.81828C31.818 0.815627 31.0024 0 29.9998 0H20.6059C20.2619 0 19.9411 0.0977346 19.6665 0.264376C19.3918 0.0977346 19.0711 0 18.7271 0H9.33312C8.33046 0 7.51483 0.815627 7.51483 1.81828V20.6666H7.45436C5.41577 20.6666 3.75732 22.3251 3.75732 24.3637V56.303C3.75732 58.3416 5.41577 60 7.45436 60H52.5452C54.5838 60 56.2422 58.3416 56.2422 56.303V24.3637C56.2423 22.3251 54.5838 20.6666 52.5452 20.6666ZM46.8482 9.33342C46.8482 9.30002 46.8753 9.27295 46.9087 9.27295H48.7874C48.8208 9.27295 48.8479 9.30002 48.8479 9.33342V20.6666H46.8482V9.33342ZM39.3332 11.1517H45.0905V20.6666H39.3332V11.1517ZM31.8182 5.51532H33.8179V6.51529C33.8179 7.00068 34.2114 7.39419 34.6968 7.39419C35.1821 7.39419 35.5757 7.00068 35.5757 6.51529V3.69704C35.5757 3.66364 35.6027 3.63657 35.6361 3.63657H37.5149C37.5483 3.63657 37.5754 3.66364 37.5754 3.69704V20.6666H35.5757V10.273C35.5757 9.78764 35.1821 9.39412 34.6968 9.39412C34.2114 9.39412 33.8179 9.78764 33.8179 10.273V20.6666H31.8182V5.51532ZM20.5454 1.81828C20.5454 1.78489 20.5725 1.75782 20.6059 1.75782H29.9998C30.0332 1.75782 30.0602 1.78489 30.0602 1.81828V20.6666H20.5454V1.81828ZM9.27265 1.81828C9.27265 1.78489 9.29972 1.75782 9.33312 1.75782H18.7271C18.7605 1.75782 18.7876 1.78489 18.7876 1.81828V20.6666H9.27265V1.81828ZM52.5453 58.2423H7.45425C6.38491 58.2423 5.51502 57.3724 5.51502 56.3031V24.3637C5.51502 23.2943 6.38491 22.4245 7.45425 22.4245H52.545C53.6144 22.4245 54.4843 23.2943 54.4843 24.3637V56.3031H54.4844C54.4845 57.3724 53.6146 58.2423 52.5453 58.2423Z" fill="#849A9C"/>
<path d="M15.909 5.63672H12.1514C11.666 5.63672 11.2725 6.03024 11.2725 6.51563C11.2725 7.00102 11.666 7.39454 12.1514 7.39454H15.909C16.3944 7.39454 16.7879 7.00102 16.7879 6.51563C16.7879 6.03024 16.3944 5.63672 15.909 5.63672Z" fill="#849A9C"/>
<path d="M15.909 9.39355H12.1514C11.666 9.39355 11.2725 9.78707 11.2725 10.2725C11.2725 10.7579 11.666 11.1514 12.1514 11.1514H15.909C16.3944 11.1514 16.7879 10.7579 16.7879 10.2725C16.7879 9.78707 16.3944 9.39355 15.909 9.39355Z" fill="#849A9C"/>
<path d="M15.909 13.1523H12.1514C11.666 13.1523 11.2725 13.5459 11.2725 14.0313C11.2725 14.5166 11.666 14.9102 12.1514 14.9102H15.909C16.3944 14.9102 16.7879 14.5166 16.7879 14.0313C16.7879 13.5459 16.3944 13.1523 15.909 13.1523Z" fill="#849A9C"/>
<path d="M27.1818 5.63672H23.4243C22.9389 5.63672 22.5454 6.03024 22.5454 6.51563C22.5454 7.00102 22.9389 7.39454 23.4243 7.39454H27.1818C27.6672 7.39454 28.0607 7.00102 28.0607 6.51563C28.0607 6.03024 27.6672 5.63672 27.1818 5.63672Z" fill="#849A9C"/>
<path d="M27.1818 9.39355H23.4243C22.9389 9.39355 22.5454 9.78707 22.5454 10.2725C22.5454 10.7579 22.9389 11.1514 23.4243 11.1514H27.1818C27.6672 11.1514 28.0607 10.7579 28.0607 10.2725C28.0607 9.78707 27.6672 9.39355 27.1818 9.39355Z" fill="#849A9C"/>
<path d="M27.1818 13.1523H23.4243C22.9389 13.1523 22.5454 13.5459 22.5454 14.0313C22.5454 14.5166 22.9389 14.9102 23.4243 14.9102H27.1818C27.6672 14.9102 28.0607 14.5166 28.0607 14.0313C28.0607 13.5459 27.6672 13.1523 27.1818 13.1523Z" fill="#849A9C"/>
<path d="M35.1667 26.3027H28.1209C27.6355 26.3027 27.242 26.6963 27.242 27.1816C27.242 27.667 27.6355 28.0606 28.1209 28.0606H35.1667C35.977 28.0606 36.6362 28.7197 36.6362 29.5302C36.6362 30.3406 35.977 30.9997 35.1667 30.9997H24.8333C24.023 30.9997 23.3638 30.3406 23.3638 29.5301C23.3638 28.8338 23.8578 28.2281 24.5385 28.09C25.0141 27.9934 25.3215 27.5295 25.2249 27.0538C25.1284 26.5781 24.6643 26.271 24.1888 26.3673C22.6922 26.6712 21.606 28.0013 21.606 29.5302C21.606 31.3098 23.0537 32.7576 24.8333 32.7576H35.1667C36.9463 32.7576 38.394 31.3098 38.394 29.5301C38.394 27.7505 36.9461 26.3027 35.1667 26.3027Z" fill="#849A9C"/>
<path d="M49.491 42.6237L46.6728 38.8662C46.5068 38.6448 46.2464 38.5146 45.9697 38.5146C45.6931 38.5146 45.4326 38.6448 45.2666 38.8662L42.4483 42.6237C42.157 43.0121 42.2358 43.563 42.6241 43.8543C42.7822 43.9729 42.9672 44.0301 43.1508 44.0301C43.418 44.0301 43.6819 43.9087 43.8546 43.6785L45.0908 42.0303V50.6663C45.0908 51.1517 45.4843 51.5452 45.9697 51.5452C46.4551 51.5452 46.8486 51.1517 46.8486 50.6663V42.0303L48.0847 43.6784C48.376 44.0668 48.9269 44.1454 49.3152 43.8542C49.7034 43.563 49.7822 43.012 49.491 42.6237Z" fill="#849A9C"/>
<path d="M48.7882 53.5449H43.1519C42.6665 53.5449 42.2729 53.9384 42.2729 54.4238C42.2729 54.9092 42.6665 55.3027 43.1519 55.3027H48.7882C49.2736 55.3027 49.6671 54.9092 49.6671 54.4238C49.6671 53.9384 49.2736 53.5449 48.7882 53.5449Z" fill="#849A9C"/>
</svg>
