<svg width="60" height="60" viewBox="0 0 60 60" fill="none" xmlns="http://www.w3.org/2000/svg">
<path d="M57.2463 39.9477L52.1389 37.6777C51.7782 37.5174 51.5452 37.1587 51.5452 36.764V35.3616C53.2608 33.9946 54.3635 31.8896 54.3635 29.5306V27.5564C54.9287 27.2441 55.3029 26.6405 55.3029 25.9646V25.773C55.3029 21.6625 51.9587 18.3184 47.8482 18.3184H45.9695C41.8589 18.3184 38.5149 21.6625 38.5149 25.773V27.5115C38.5149 28.1056 38.7706 28.6439 39.2162 28.9883C39.2918 29.0466 39.3714 29.098 39.4542 29.1425V29.5306C39.4542 31.8896 40.5569 33.9946 42.2724 35.3615V36.7641C42.2724 37.1588 42.0393 37.5175 41.6787 37.6779L36.5713 39.9478C34.8987 40.6911 33.8179 42.3542 33.8179 44.1846V55.8335C33.8179 56.3189 34.2114 56.7124 34.6968 56.7124C35.1822 56.7124 35.5757 56.3189 35.5757 55.8335V44.1845C35.5757 44.0826 35.5829 43.982 35.5935 43.8821L37.9469 46.2355C38.3131 46.6017 38.5149 47.0887 38.5149 47.6068V55.8334C38.5149 56.3187 38.9084 56.7123 39.3938 56.7123C39.8792 56.7123 40.2727 56.3187 40.2727 55.8334V47.6068C40.2727 46.6193 39.8881 45.6908 39.1899 44.9926L36.3842 42.1869C36.6369 41.9246 36.9402 41.7072 37.2852 41.5538L42.3063 39.3222L46.03 43.0459V55.8332C46.03 56.3186 46.4235 56.7122 46.9089 56.7122C47.3943 56.7122 47.7878 56.3186 47.7878 55.8332V43.046L51.5114 39.3223L56.5324 41.5539C56.8774 41.7073 57.1808 41.9247 57.4336 42.1871L54.628 44.9927C53.9298 45.6909 53.5452 46.6194 53.5452 47.6069V55.8335C53.5452 56.3189 53.9387 56.7124 54.4241 56.7124C54.9095 56.7124 55.303 56.3189 55.303 55.8335V47.6069C55.303 47.0889 55.5047 46.6019 55.871 46.2356L58.2243 43.8823C58.2348 43.9822 58.2421 44.0826 58.2421 44.1845V55.8334C58.2421 56.3187 58.6356 56.7123 59.121 56.7123C59.6064 56.7123 59.9999 56.3187 59.9999 55.8334V44.1845C59.9998 42.3541 58.9189 40.691 57.2463 39.9477ZM46.909 41.4391L43.6416 38.1717C43.89 37.7537 44.0303 37.2702 44.0303 36.7641V36.4065C44.9165 36.7788 45.889 36.9852 46.909 36.9852C47.9289 36.9852 48.9013 36.7789 49.7875 36.4065V36.764C49.7875 37.27 49.9277 37.7537 50.1763 38.1717L46.909 41.4391ZM46.9089 35.2272C43.7677 35.2273 41.212 32.6717 41.212 29.5305V29.1351C41.7605 28.9177 42.2958 28.5719 42.8083 28.0989C43.1649 27.7698 43.1872 27.2137 42.8579 26.857C42.5289 26.5004 41.9728 26.4781 41.616 26.8073C41.1764 27.213 40.7372 27.4753 40.3109 27.5865C40.3006 27.5892 40.2929 27.5904 40.2876 27.5908C40.2812 27.5786 40.2727 27.5527 40.2727 27.5114V25.7729C40.2727 22.6317 42.8283 20.0761 45.9695 20.0761H47.8482C50.9895 20.0761 53.5451 22.6317 53.5451 25.7729V25.9645C53.5451 25.993 53.528 26.0177 53.5055 26.0221C48.242 27.0615 45.6026 25.1025 44.7121 24.212C44.3688 23.8687 43.8123 23.8687 43.4692 24.212C43.1259 24.5552 43.1259 25.1117 43.4692 25.4548C46.1984 28.184 50.181 28.2332 52.6057 27.942V29.5304C52.6057 32.6716 50.0501 35.2272 46.9089 35.2272Z" fill="#849A9C"/>
<path d="M27.1823 24.8945H25.3035C22.229 24.8945 19.7276 27.3959 19.7276 30.4704V32.3492C19.7276 32.8346 20.1212 33.2281 20.6065 33.2281C20.6138 33.2281 20.6349 33.2279 20.667 33.2266V34.2279C20.667 35.8851 21.3944 37.3748 22.5458 38.3969V39.6425C22.5458 40.0236 22.334 40.3663 21.9931 40.5368L17.0744 42.9961C15.8138 43.6264 15.0308 44.8935 15.0308 46.3029V55.8339C15.0308 56.3193 15.4243 56.7128 15.9097 56.7128C16.3951 56.7128 16.7886 56.3193 16.7886 55.8339V46.3029C16.7886 46.1328 16.8113 45.967 16.8528 45.8079L18.2203 47.1755C18.5866 47.5417 18.7883 48.0287 18.7883 48.5467V55.8339C18.7883 56.3193 19.1818 56.7128 19.6672 56.7128C20.1526 56.7128 20.5461 56.3193 20.5461 55.8339V48.5467C20.5461 47.5592 20.1615 46.6307 19.4631 45.9325L18.0195 44.4889L22.7792 42.109C22.9349 42.0311 23.0798 41.9392 23.215 41.8369L25.364 43.9859V55.8339C25.364 56.3193 25.7575 56.7128 26.2429 56.7128C26.7283 56.7128 27.1218 56.3193 27.1218 55.8339V43.9859L29.2708 41.8369C29.4059 41.9392 29.5509 42.0312 29.7066 42.109L30.5466 42.529C30.6728 42.5922 30.8069 42.622 30.939 42.622C31.2613 42.622 31.5718 42.4438 31.7258 42.136C31.9429 41.7018 31.7669 41.1739 31.3327 40.9568L30.4928 40.5368C30.1518 40.3663 29.9401 40.0237 29.9401 39.6425V38.3969C31.0914 37.3746 31.8188 35.885 31.8188 34.2279V33.2275C31.8391 33.2276 31.8589 33.2281 31.8793 33.2281C32.3647 33.2281 32.7582 32.8346 32.7582 32.3492V30.4704C32.7581 27.3959 30.2568 24.8945 27.1823 24.8945ZM26.2429 42.3789L24.2119 40.3479C24.2712 40.1213 24.3037 39.8849 24.3037 39.6426V39.4554C24.908 39.6803 25.5612 39.8038 26.2429 39.8038C26.9246 39.8038 27.5778 39.6803 28.1821 39.4554V39.6426C28.1821 39.885 28.2145 40.1213 28.2739 40.3479L26.2429 42.3789ZM30.0609 34.228C30.0609 36.3333 28.3481 38.0461 26.2428 38.0461C24.1375 38.0461 22.4247 36.3333 22.4247 34.228V32.8111C23.0403 32.5652 23.7575 32.174 24.4873 31.5523C25.4103 32.0325 27.3413 32.8626 30.0609 33.1368V34.228ZM31.0004 31.4467C27.1797 31.2406 24.874 29.7538 24.8517 29.7392C24.7029 29.64 24.5333 29.5915 24.3644 29.5915C24.1375 29.5915 23.9125 29.6791 23.7426 29.849C22.9017 30.6898 22.0778 31.0947 21.4854 31.2896V30.4704C21.4854 28.3652 23.1983 26.6523 25.3035 26.6523H27.1823C29.2876 26.6523 31.0004 28.3652 31.0004 30.4704V31.4467Z" fill="#849A9C"/>
<path d="M13.0303 38.9245V37.0457C13.0304 34.4891 10.9506 32.4092 8.39402 32.4092C5.85082 32.4092 3.78012 34.4676 3.75855 37.0057C3.75844 37.0089 3.75844 37.0122 3.75832 37.0154C3.7582 37.0254 3.7575 37.0355 3.7575 37.0456V38.9243C3.7575 40.4487 4.49719 41.8033 5.63625 42.6489V43.9802C5.63625 44.0032 5.62348 44.024 5.60285 44.0343L1.52438 46.0736C0.584063 46.5437 0 47.4889 0 48.5402V55.8334C0 56.3188 0.393516 56.7123 0.878906 56.7123C1.3643 56.7123 1.75781 56.3188 1.75781 55.8334V48.5402C1.75781 48.1591 1.96957 47.8163 2.31047 47.6458L5.0891 46.2565L7.515 48.6824V55.8334C7.515 56.3188 7.90852 56.7123 8.39391 56.7123C8.8793 56.7123 9.27281 56.3188 9.27281 55.8334V48.6824L11.6988 46.2564L11.7571 46.2856C11.8833 46.3487 12.0173 46.3785 12.1494 46.3785C12.4718 46.3785 12.7822 46.2004 12.9362 45.8925C13.1532 45.4584 12.9773 44.9304 12.5432 44.7134L11.1851 44.0344C11.1645 44.0241 11.1516 44.0034 11.1516 43.9803V42.649C12.2906 41.8034 13.0303 40.4488 13.0303 38.9245ZM8.39402 34.167C9.98133 34.167 11.2726 35.4584 11.2726 37.0456V37.0885C8.94481 37.0006 6.71742 36.5943 5.5984 36.3602C5.90684 35.1029 7.04297 34.167 8.39402 34.167ZM8.39402 47.0754L6.71602 45.3973C7.14141 45.057 7.39418 44.5416 7.39418 43.9802V43.4511C7.71645 43.5222 8.05078 43.5609 8.39402 43.5609C8.73727 43.5609 9.0716 43.5222 9.39387 43.4511V43.9802C9.39387 44.5416 9.64664 45.057 10.072 45.3974L8.39402 47.0754ZM8.39402 41.8032C6.80672 41.8032 5.51543 40.5118 5.51543 38.9246V38.1398C6.77227 38.3942 8.95852 38.7674 11.2727 38.8479V38.9246C11.2726 40.5118 9.98133 41.8032 8.39402 41.8032Z" fill="#849A9C"/>
<path d="M4.63623 50.2578C4.15084 50.2578 3.75732 50.6513 3.75732 51.1367V55.8337C3.75732 56.3191 4.15084 56.7126 4.63623 56.7126C5.12162 56.7126 5.51514 56.3191 5.51514 55.8337V51.1367C5.51514 50.6513 5.12174 50.2578 4.63623 50.2578Z" fill="#849A9C"/>
<path d="M59.9337 4.81016C59.8138 4.51836 59.5469 4.31317 59.2342 4.2725L51.724 3.29469C51.2428 3.23141 50.8016 3.57137 50.739 4.05278C50.6763 4.53406 51.0157 4.97516 51.4971 5.03774L55.7319 5.5891L0.710849 28.1819C0.261786 28.3663 0.0472157 28.8798 0.231669 29.3288C0.371122 29.6686 0.69913 29.8741 1.04495 29.8741C1.15616 29.8741 1.26925 29.8529 1.37847 29.808L56.3893 7.21965L53.7723 10.5779C53.4739 10.9607 53.5425 11.5129 53.9253 11.8114C54.0859 11.9364 54.2761 11.997 54.4649 11.997C54.7266 11.997 54.9854 11.8807 55.1587 11.6582L59.814 5.68426C60.0078 5.43547 60.0535 5.10195 59.9337 4.81016Z" fill="#849A9C"/>
</svg>
