<svg width="21" height="20" viewBox="0 0 21 20" fill="none" xmlns="http://www.w3.org/2000/svg">
<g clip-path="url(#clip0_492_15)">
<path d="M2.90328 9.75391C2.90328 9.75391 3.69344 10.9147 5.34953 11.8973C5.34953 11.8973 4.15012 1.76051 11.9651 0C9.96285 7.34848 14.512 9.42086 16.1702 5.53852C18.9395 9.23582 16.8368 12.4615 16.8368 12.4615C17.9723 12.6251 18.9262 11.3846 18.9262 11.3846C18.9347 11.5374 18.9395 11.6912 18.9395 11.8462C18.9395 16.3494 15.2889 20 10.7857 20C6.28242 20 2.63184 16.3494 2.63184 11.8462C2.63184 11.1228 2.72652 10.4216 2.90328 9.75391Z" fill="#FF6536"/>
<path d="M18.9262 11.3846C18.9262 11.3846 17.9724 12.6251 16.8369 12.4615C16.8369 12.4615 18.9395 9.23582 16.1702 5.53852C14.512 9.42086 9.96287 7.34848 11.9651 0C11.5465 0.0942969 11.154 0.212773 10.7856 0.352266V20C15.2889 20 18.9395 16.3494 18.9395 11.8462C18.9395 11.6912 18.9347 11.5374 18.9262 11.3846Z" fill="#FF421D"/>
<path d="M7.20947 16.4241C7.20947 18.399 8.81049 20 10.7854 20C12.7603 20 14.3613 18.399 14.3613 16.4241C14.3613 15.367 13.9027 14.4171 13.1735 13.7625C11.791 15.6408 9.82072 12.7915 11.3562 10.7108C11.3562 10.7108 7.20947 11.2305 7.20947 16.4241Z" fill="#FBBF00"/>
<path d="M14.3616 16.4241C14.3616 15.367 13.9029 14.4171 13.1738 13.7625C11.7912 15.6408 9.82096 12.7915 11.3564 10.7108C11.3564 10.7108 11.1311 10.7391 10.7856 10.8482V20C12.7606 20 14.3616 18.399 14.3616 16.4241Z" fill="#FFA900"/>
</g>
<defs>
<clipPath id="clip0_492_15">
<rect width="20" height="20" fill="white" transform="translate(0.785645)"/>
</clipPath>
</defs>
</svg>
